<svg xmlns="http://www.w3.org/2000/svg" width="30.742" height="30.742" viewBox="0 0 30.742 30.742"><defs><style>.a{fill:#4267b2;}.b{fill:#fff;}</style></defs><path class="a" d="M29.045,0H1.7A1.7,1.7,0,0,0,0,1.7V29.046a1.7,1.7,0,0,0,1.7,1.7H29.045a1.7,1.7,0,0,0,1.7-1.7h0V1.7a1.7,1.7,0,0,0-1.7-1.7Zm0,0" transform="translate(0 0)"/><path class="b" d="M215.8,103.423V91.535H219.8l.6-4.653H215.8V83.918c0-1.344.373-2.26,2.3-2.26h2.443V77.507a32.835,32.835,0,0,0-3.58-.183c-3.543,0-5.967,2.162-5.967,6.133v3.425H207v4.653h3.993v11.888Zm0,0" transform="translate(-194.571 -72.682)"/></svg>