<svg xmlns="http://www.w3.org/2000/svg" xmlns:xlink="http://www.w3.org/1999/xlink" width="30.742" height="30.742" viewBox="0 0 30.742 30.742"><defs><style>.a{fill:url(#a);}.b{fill:url(#b);}.c{fill:url(#c);}</style><linearGradient id="a" x1="0.084" y1="0.916" x2="0.916" y2="0.084" gradientUnits="objectBoundingBox"><stop offset="0" stop-color="#ffd600"/><stop offset="0.5" stop-color="#ff0100"/><stop offset="1" stop-color="#d800b9"/></linearGradient><linearGradient id="b" x1="0.146" y1="0.854" x2="0.854" y2="0.146" gradientUnits="objectBoundingBox"><stop offset="0" stop-color="#ff6400"/><stop offset="0.5" stop-color="#ff0100"/><stop offset="1" stop-color="#fd0056"/></linearGradient><linearGradient id="c" x1="0.146" y1="0.854" x2="0.854" y2="0.146" gradientUnits="objectBoundingBox"><stop offset="0" stop-color="#f30072"/><stop offset="1" stop-color="#e50097"/></linearGradient></defs><path class="a" d="M30.649,9.033A11.284,11.284,0,0,0,29.935,5.3,7.533,7.533,0,0,0,28.162,2.58,7.536,7.536,0,0,0,25.439.806,11.283,11.283,0,0,0,21.708.093C20.069.018,19.545,0,15.371,0s-4.7.018-6.337.092A11.286,11.286,0,0,0,5.3.807,7.533,7.533,0,0,0,2.58,2.58,7.535,7.535,0,0,0,.806,5.3,11.284,11.284,0,0,0,.093,9.033C.018,10.673,0,11.2,0,15.37s.018,4.7.093,6.338a11.282,11.282,0,0,0,.714,3.731A7.532,7.532,0,0,0,2.58,28.161,7.531,7.531,0,0,0,5.3,29.934a11.278,11.278,0,0,0,3.731.715c1.639.075,2.163.092,6.337.092s4.7-.018,6.337-.092a11.28,11.28,0,0,0,3.731-.715,7.858,7.858,0,0,0,4.5-4.5,11.281,11.281,0,0,0,.715-3.731c.075-1.639.092-2.163.092-6.337s-.018-4.7-.092-6.337ZM27.882,21.582a8.5,8.5,0,0,1-.529,2.854,5.09,5.09,0,0,1-2.917,2.917,8.5,8.5,0,0,1-2.854.529c-1.62.074-2.107.09-6.211.09s-4.591-.015-6.211-.09a8.507,8.507,0,0,1-2.854-.529A4.763,4.763,0,0,1,4.538,26.2a4.762,4.762,0,0,1-1.15-1.767,8.5,8.5,0,0,1-.529-2.854c-.074-1.621-.09-2.107-.09-6.211s.016-4.59.09-6.211a8.511,8.511,0,0,1,.529-2.854,4.765,4.765,0,0,1,1.15-1.767,4.759,4.759,0,0,1,1.768-1.15A8.5,8.5,0,0,1,9.16,2.859c1.621-.074,2.107-.09,6.211-.09h0c4.1,0,4.59.016,6.211.09a8.506,8.506,0,0,1,2.854.529A4.766,4.766,0,0,1,26.2,4.538a4.759,4.759,0,0,1,1.15,1.767,8.5,8.5,0,0,1,.529,2.854c.074,1.621.09,2.107.09,6.211s-.015,4.59-.09,6.211Zm0,0" transform="translate(0 0)"/><path class="b" d="M132.432,124.539a7.893,7.893,0,1,0,7.893,7.893A7.893,7.893,0,0,0,132.432,124.539Zm0,13.017a5.124,5.124,0,1,1,5.124-5.124A5.124,5.124,0,0,1,132.432,137.556Zm0,0" transform="translate(-117.061 -117.061)"/><path class="c" d="M365.619,90.47a1.845,1.845,0,1,1-1.844-1.845A1.845,1.845,0,0,1,365.619,90.47Zm0,0" transform="translate(-340.198 -83.304)"/></svg>