<svg xmlns="http://www.w3.org/2000/svg" width="30.742" height="30.742" viewBox="0 0 30.742 30.742"><defs><style>.a{fill:#007ab9;}</style></defs><path class="a" d="M28.525,0H2.217A2.217,2.217,0,0,0,0,2.217V28.525a2.217,2.217,0,0,0,2.217,2.217H28.525a2.217,2.217,0,0,0,2.217-2.217V2.217A2.217,2.217,0,0,0,28.525,0ZM10.9,23.237H7.161V11.974H10.9Zm-1.872-12.8H9.008a1.951,1.951,0,1,1,.049-3.892,1.952,1.952,0,1,1-.025,3.892Zm15.37,12.8H20.66V17.211c0-1.514-.542-2.547-1.9-2.547a2.049,2.049,0,0,0-1.921,1.369,2.564,2.564,0,0,0-.123.914v6.289H12.976s.049-10.206,0-11.262h3.743v1.595a3.716,3.716,0,0,1,3.374-1.859c2.463,0,4.31,1.61,4.31,5.069Zm0,0" transform="translate(0)"/></svg>