<svg xmlns="http://www.w3.org/2000/svg" width="37.881" height="26.523" viewBox="0 0 37.881 26.523"><defs><style>.a{fill:red;}.b{fill:#fff;}</style></defs><path class="a" d="M37.1,4.15A4.746,4.746,0,0,0,33.762.811C30.8,0,18.94,0,18.94,0S7.083,0,4.119.78A4.843,4.843,0,0,0,.78,4.15C0,7.114,0,13.261,0,13.261s0,6.178.78,9.111a4.747,4.747,0,0,0,3.339,3.339c3,.811,14.821.811,14.821.811s11.857,0,14.821-.78A4.746,4.746,0,0,0,37.1,22.4c.78-2.964.78-9.111.78-9.111s.031-6.178-.78-9.142Zm0,0" transform="translate(0 0)"/><path class="b" d="M204.969,113.842l9.86-5.679-9.86-5.679Zm0,0" transform="translate(-189.804 -94.902)"/></svg>